<svg width="322" height="137" viewBox="0 0 322 137" fill="none" xmlns="http://www.w3.org/2000/svg">
<g clip-path="url(#clip0_417_7020)">
<path d="M41.6791 108.447V103.423C37.2123 107.148 31.8152 109.381 25.6724 109.381C11.7108 109.381 0.355469 97.28 0.355469 82.2035C0.355469 67.127 11.7108 55.026 25.6724 55.026C31.8152 55.026 37.2123 57.2595 41.6791 60.9842V36.413C41.6791 32.1308 39.2575 30.4548 39.2575 30.4548H55.8253V102.492C55.8253 106.775 58.2433 108.451 58.2433 108.451H41.6755L41.6791 108.447ZM41.6791 101.186V63.214C39.4457 60.9806 35.5363 58.3744 31.0695 58.3744C23.2507 58.3744 14.317 66.7506 14.317 82.1999C14.317 94.6701 20.8327 106.025 31.0695 106.025C35.1635 106.025 39.0729 103.977 41.6791 101.186Z" fill="#C6FFD7"/>
<path d="M102.173 95.6006C102.173 95.6006 97.706 109.374 82.4413 109.374C67.1766 109.374 55.6367 97.4611 55.6367 82.7539C55.6367 66.3743 66.8038 55.019 81.511 55.019C101.243 55.019 104.406 74.9351 104.406 77.9142L68.668 83.6842C70.1557 93.1789 77.4171 102.858 88.7724 102.858C96.4029 102.858 102.176 95.5969 102.176 95.5969L102.173 95.6006ZM68.2952 81.8272L92.6781 77.9178C90.4447 65.6322 85.2322 56.1375 77.6017 57.0714C66.992 58.5591 68.1069 76.6147 68.2952 81.8272Z" fill="#C6FFD7"/>
<path d="M162.856 86.2941C162.856 99.1371 152.246 108.444 139.215 108.444H103.661C103.661 108.444 106.083 106.768 106.083 102.485V36.406C106.083 32.1237 103.661 30.4478 103.661 30.4478H136.609C148.337 30.4478 157.086 38.4512 157.086 48.3187C157.086 55.7647 151.873 62.0921 144.243 64.8866C154.48 67.3082 162.856 75.3116 162.856 86.2941ZM120.229 64.3291H131.211C137.912 64.3291 143.682 57.256 143.682 48.3224C143.682 39.3887 138.469 32.3156 131.211 32.3156H120.229V64.3327V64.3291ZM148.152 86.2941C148.152 75.3116 141.825 66.1897 133.076 66.1897H120.233V106.583H133.448C141.64 106.583 148.152 98.3914 148.152 86.2941Z" fill="#C6FFD7"/>
<path d="M223.535 136.928C207.898 136.928 199.337 127.248 199.337 109.566V101.747C196.919 105.656 190.215 109.193 184.072 109.193C172.159 109.193 164.525 102.304 164.525 90.9491V61.5382C164.525 57.256 162.104 55.58 162.104 55.58H178.671V95.9734C178.671 102.116 184.068 105.468 188.724 105.468C193.936 105.468 199.333 101.186 199.333 98.0222V61.5382C199.333 57.256 196.915 55.58 196.915 55.58H213.483C213.483 55.58 213.668 102.301 213.668 108.816C213.668 121.659 217.02 132.457 228.744 132.457C236.747 132.457 240.099 126.13 240.657 123.708C238.239 123.708 235.444 123.708 235.444 120.172C235.444 118.123 237.12 116.447 239.354 116.447C241.402 116.447 243.078 118.123 243.078 120.172C243.078 124.827 239.915 136.924 223.532 136.924L223.535 136.928Z" fill="#C6FFD7"/>
<path d="M247.359 82.5729C246.056 78.106 243.45 76.6147 240.844 76.6147C238.795 76.6147 236.75 77.545 235.074 78.4752C234.889 78.4752 232.283 80.7087 232.283 80.7087V102.489C232.283 106.771 234.701 108.447 234.701 108.447H215.527C215.527 108.447 217.945 106.771 217.945 102.489V30.4514H231.533C241.397 30.4514 249.032 14.8138 237.861 13.3261C221.666 10.9044 197.467 48.1341 176.248 48.3223C163.405 48.3223 160.426 41.061 159.496 38.2701C158.193 34.3607 159.68 29.1482 163.778 29.1482C166.011 29.1482 167.499 30.8242 167.687 32.8694C167.687 35.1028 165.827 36.7788 163.778 36.7788C162.475 36.7788 161.172 36.0331 160.614 34.73C160.614 38.8239 163.778 43.8519 171.224 43.8519C194.119 43.6672 209.757 0.106567 234.513 0.106567C245.122 0.106567 249.962 7.17966 249.962 13.6953C249.962 21.1412 244.749 26.7266 236.188 30.636C233.767 31.5662 232.279 33.7997 232.279 36.4059V79.2173C232.279 79.2173 243.262 70.8411 245.495 69.1651C256.662 60.6043 251.08 55.5764 251.08 55.5764H267.087L237.861 76.4228C241.213 74.5622 244.376 73.632 247.356 73.632C254.056 73.632 259.268 77.9142 260.944 84.057L266.902 102.485C268.021 106.768 270.996 108.444 270.996 108.444H252.383C252.383 108.444 254.244 106.768 253.129 102.485L247.359 82.5692V82.5729Z" fill="#C6FFD7"/>
<path d="M305.251 102.862C302.833 106.214 297.432 109.377 288.499 109.377C277.701 109.377 269.325 102.489 270.443 92.6249C271.373 83.1302 283.474 78.1059 291.662 75.315C301.715 72.1513 305.251 67.6845 305.251 65.2629C305.251 60.9806 301.715 56.3292 295.756 56.3292C285.704 56.3292 275.652 74.2001 275.652 74.2001V59.8657C275.652 59.8657 284.216 55.0261 295.941 55.0261C307.666 55.0261 319.582 60.2386 319.582 76.4336V102.493C319.582 106.775 322 108.451 322 108.451H305.247V102.865L305.251 102.862ZM305.251 101.374V68.7994C299.854 78.1059 284.216 77.3639 283.844 91.6946C283.098 104.726 294.269 106.029 298.178 105.656C301.53 105.099 303.575 103.235 305.251 101.374Z" fill="#C6FFD7"/>
</g>
<defs>
<clipPath id="clip0_417_7020">
<rect width="321.644" height="136.821" fill="white" transform="translate(0.355469 0.106567)"/>
</clipPath>
</defs>
</svg>
