<svg width="80" height="34" viewBox="0 0 80 34" fill="none" xmlns="http://www.w3.org/2000/svg">
<path d="M10.2689 26.9225V25.674C9.15889 26.5996 7.81771 27.1546 6.29123 27.1546C2.82179 27.1546 0 24.1475 0 20.401C0 16.6545 2.82179 13.6474 6.29123 13.6474C7.81771 13.6474 9.15889 14.2024 10.2689 15.128V9.02211C10.2689 7.95798 9.66712 7.5415 9.66712 7.5415H13.7842V25.4428C13.7842 26.5069 14.3851 26.9234 14.3851 26.9234H10.268L10.2689 26.9225ZM10.2689 25.1181V15.6821C9.71389 15.1271 8.74241 14.4795 7.63241 14.4795C5.68945 14.4795 3.46944 16.561 3.46944 20.4001C3.46944 23.4989 5.08857 26.3207 7.63241 26.3207C8.64976 26.3207 9.62124 25.8116 10.2689 25.1181Z" fill="white"/>
<path d="M25.3015 23.73C25.3015 23.73 24.1915 27.1527 20.3982 27.1527C16.605 27.1527 13.7373 24.1924 13.7373 20.5376C13.7373 16.4673 16.5123 13.6455 20.1671 13.6455C25.0703 13.6455 25.8565 18.5947 25.8565 19.335L16.9756 20.7688C17.3453 23.1282 19.1497 25.5335 21.9715 25.5335C23.8677 25.5335 25.3024 23.7291 25.3024 23.7291L25.3015 23.73ZM16.8829 20.3073L22.9421 19.3359C22.3871 16.2829 21.0918 13.9235 19.1956 14.1555C16.5591 14.5252 16.8361 19.012 16.8829 20.3073Z" fill="white"/>
<path d="M40.3807 21.4178C40.3807 24.6093 37.7442 26.9219 34.506 26.9219H25.6709C25.6709 26.9219 26.2727 26.5055 26.2727 25.4413V9.02064C26.2727 7.95651 25.6709 7.54004 25.6709 7.54004H33.8583C36.7727 7.54004 38.9469 9.52887 38.9469 11.981C38.9469 13.8313 37.6516 15.4036 35.7554 16.098C38.2992 16.6998 40.3807 18.6887 40.3807 21.4178ZM29.788 15.9595H32.5171C34.1821 15.9595 35.616 14.2019 35.616 11.9819C35.616 9.76185 34.3207 8.00419 32.5171 8.00419H29.788V15.9604V15.9595ZM36.7269 21.4178C36.7269 18.6887 35.1545 16.4219 32.9804 16.4219H29.7889V26.4596H33.073C35.1086 26.4596 36.7269 24.424 36.7269 21.4178Z" fill="white"/>
<path d="M55.46 34C51.5741 34 49.4468 31.5947 49.4468 27.2006V25.2576C48.8459 26.2291 47.18 27.1079 45.6535 27.1079C42.6932 27.1079 40.7961 25.3961 40.7961 22.5743V15.2658C40.7961 14.2016 40.1943 13.7852 40.1943 13.7852H44.3114V23.8229C44.3114 25.3494 45.6526 26.1823 46.8094 26.1823C48.1047 26.1823 49.4459 25.1182 49.4459 24.332V15.2658C49.4459 14.2016 48.845 13.7852 48.845 13.7852H52.9621C52.9621 13.7852 53.008 25.3952 53.008 27.0144C53.008 30.2059 53.8409 32.8891 56.7545 32.8891C58.7433 32.8891 59.5762 31.3168 59.7148 30.715C59.1139 30.715 58.4195 30.715 58.4195 29.8362C58.4195 29.327 58.8359 28.9105 59.3909 28.9105C59.9001 28.9105 60.3165 29.327 60.3165 29.8362C60.3165 30.9929 59.5304 33.9991 55.4591 33.9991L55.46 34Z" fill="white"/>
<path d="M61.3806 20.4928C61.0568 19.3828 60.4091 19.0122 59.7615 19.0122C59.2523 19.0122 58.7441 19.2434 58.3276 19.4746C58.2817 19.4746 57.6341 20.0296 57.6341 20.0296V25.442C57.6341 26.5061 58.235 26.9226 58.235 26.9226H53.4702C53.4702 26.9226 54.0711 26.5061 54.0711 25.442V7.54066H57.4479C59.8991 7.54066 61.7962 3.65474 59.0203 3.28504C54.9958 2.68326 48.9825 11.9348 43.7096 11.9816C40.5181 11.9816 39.7778 10.1771 39.5466 9.48361C39.2228 8.51214 39.5925 7.21683 40.6107 7.21683C41.1657 7.21683 41.5354 7.63331 41.5822 8.14154C41.5822 8.69654 41.1199 9.11301 40.6107 9.11301C40.2869 9.11301 39.9631 8.92771 39.8245 8.60389C39.8245 9.62124 40.6107 10.8707 42.461 10.8707C48.1505 10.8248 52.0364 0 58.1882 0C60.8247 0 62.0273 1.75766 62.0273 3.37679C62.0273 5.2271 60.732 6.61505 58.6047 7.58653C58.0029 7.81771 57.6332 8.37271 57.6332 9.02036V19.659C57.6332 19.659 60.3623 17.5775 60.9173 17.161C63.6923 15.0336 62.3053 13.7842 62.3053 13.7842H66.283L59.0203 18.9645C59.8532 18.5022 60.6394 18.271 61.3797 18.271C63.0447 18.271 64.34 19.3351 64.7565 20.8616L66.2371 25.4411C66.515 26.5052 67.2544 26.9217 67.2544 26.9217H62.6291C62.6291 26.9217 63.0915 26.5052 62.8144 25.4411L61.3806 20.4919V20.4928Z" fill="white"/>
<path d="M75.7665 25.5346C75.1656 26.3675 73.8235 27.1537 71.6035 27.1537C68.9203 27.1537 66.8388 25.4419 67.1167 22.9908C67.3479 20.6313 70.355 19.3828 72.3897 18.6893C74.8877 17.9031 75.7665 16.7931 75.7665 16.1913C75.7665 15.1272 74.8877 13.9713 73.4071 13.9713C70.9091 13.9713 68.4111 18.4122 68.4111 18.4122V14.8501C68.4111 14.8501 70.5394 13.6475 73.4529 13.6475C76.3665 13.6475 79.3277 14.9428 79.3277 18.9672V25.4428C79.3277 26.507 79.9286 26.9234 79.9286 26.9234H75.7656V25.5355L75.7665 25.5346ZM75.7665 25.1649V17.0701C74.4253 19.3828 70.5394 19.1984 70.4467 22.7596C70.2614 25.9978 73.0374 26.3217 74.0088 26.229C74.8418 26.0905 75.35 25.6272 75.7665 25.1649Z" fill="white"/>
</svg>
