<svg width="1440" height="348" viewBox="0 0 1440 348" fill="none" xmlns="http://www.w3.org/2000/svg">
<mask id="mask0_604_1361" style="mask-type:alpha" maskUnits="userSpaceOnUse" x="0" y="0" width="1440" height="348">
<rect width="1440" height="348" fill="#F1F1F1"/>
</mask>
<g mask="url(#mask0_604_1361)">
<g opacity="0.1">
<path d="M237.83 187.342H300.133V472.914C300.133 481.632 302.597 487.742 305.097 491.689C306.178 493.394 307.261 494.691 308.149 495.617H245.858V476.615V474.479L244.217 475.847C226.608 490.531 205.359 499.317 181.182 499.317C126.257 499.317 81.4688 451.692 81.4688 392.203C81.4688 332.714 126.257 285.089 181.182 285.089C205.359 285.089 226.608 293.875 244.217 308.559L245.858 309.927V307.791V210.044C245.858 201.326 243.39 195.217 240.885 191.269C239.804 189.564 238.719 188.268 237.83 187.342ZM245.589 468.398L245.858 468.11V467.716V316.661V316.247L245.565 315.954C236.584 306.973 220.792 296.409 202.652 296.409C170.797 296.409 135.009 330.4 135.009 392.189C135.009 417.152 141.528 441.047 153.225 458.733C164.93 476.431 181.872 487.969 202.652 487.969C219.262 487.969 235.066 479.667 245.589 468.398Z" stroke="#C6FFD7" stroke-width="2"/>
<path d="M482.177 450.692C482.259 450.607 482.34 450.523 482.42 450.44C481.984 451.395 481.476 452.456 480.891 453.604C478.305 458.685 474.23 465.46 468.281 472.233C456.396 485.762 437.031 499.288 407.014 499.288C346.847 499.288 301.383 452.351 301.383 394.392C301.383 329.733 345.409 285.06 403.313 285.06C442.145 285.06 464.62 304.623 477.434 325.675C489.726 345.869 493.103 367.409 493.374 374.291L352.063 397.105L351.08 397.264L351.234 398.247C357.199 436.314 386.363 475.369 432.199 475.369C447.688 475.369 461.231 468.005 470.848 460.723C475.665 457.075 479.523 453.428 482.177 450.692ZM349.74 390.741L349.781 391.872L350.898 391.693L447.895 376.141L448.903 375.979L448.721 374.975C444.266 350.469 436.827 328.659 426.632 313.412C416.434 298.163 403.344 289.31 387.64 291.232L387.631 291.233L387.622 291.234C365.817 294.292 356.244 314.378 352.16 335.72C348.364 355.557 349.203 376.973 349.644 388.241C349.68 389.141 349.712 389.977 349.74 390.741Z" stroke="#C6FFD7" stroke-width="2"/>
<path d="M632.861 495.588H494.032C494.92 494.662 496.005 493.366 497.087 491.661C499.591 487.714 502.059 481.604 502.059 472.886V210.016C502.059 201.298 499.591 195.188 497.087 191.241C496.005 189.536 494.92 188.239 494.032 187.314H622.493C668.715 187.314 702.954 218.815 702.954 257.406C702.954 286.517 682.572 311.369 652.519 322.375L649.391 323.521L652.633 324.287C693.031 333.844 725.907 365.368 725.907 408.475C725.907 458.935 684.23 495.588 632.861 495.588ZM556.334 321.111H557.334V322.097H601.023C628.436 322.097 651.631 293.279 651.631 257.42C651.631 221.593 630.679 192.744 601.023 192.744H557.334H556.334V193.744V320.097V321.097V321.111ZM557.348 327.498H556.348V328.498V489.186V490.186H557.348H609.922C643.315 490.186 669.415 456.859 669.415 408.475C669.415 386.448 663.071 366.24 652.285 351.512C641.494 336.777 626.222 327.498 608.439 327.498H557.348Z" stroke="#C6FFD7" stroke-width="2"/>
<path d="M729.575 291.219C728.493 289.514 727.408 288.218 726.52 287.292H788.822V446.98C788.822 472.134 810.921 485.751 829.811 485.751C840.435 485.751 851.189 481.396 859.281 475.467C863.332 472.499 866.748 469.113 869.16 465.639C871.564 462.174 873.017 458.552 873.017 455.131V309.994C873.017 301.277 870.552 295.167 868.052 291.22C866.972 289.514 865.888 288.218 865.001 287.292H927.31L927.314 288.39L927.338 294.333C927.358 299.465 927.386 306.827 927.421 315.741C927.49 333.571 927.581 357.613 927.673 382.465C927.857 432.172 928.04 485.114 928.04 498.071C928.04 523.67 931.375 547.381 940.656 564.725C945.305 573.412 951.456 580.523 959.442 585.457C967.431 590.394 977.197 593.117 989.016 593.117C1005.23 593.117 1016.77 586.698 1024.52 579.039C1032.25 571.406 1036.23 562.535 1037.38 557.537L1037.66 556.312H1036.41C1031.53 556.312 1026.58 556.295 1022.83 554.639C1021 553.828 1019.48 552.634 1018.41 550.861C1017.34 549.078 1016.67 546.632 1016.67 543.244C1016.67 535.677 1022.86 529.426 1031.22 529.426C1038.82 529.426 1045.04 535.645 1045.04 543.244C1045.04 552.328 1041.94 568.757 1030.81 582.891C1019.73 596.976 1000.59 608.886 968.28 608.886H966.233C936.345 608.469 913.281 598.942 897.584 581.193C881.51 563.018 873.031 536.077 873.031 501.052V469.948V466.43L871.181 469.422C866.501 476.988 857.602 484.285 846.779 489.696C835.968 495.1 823.345 498.569 811.307 498.569C787.801 498.569 768.625 491.775 755.335 479.486C742.054 467.207 734.548 449.346 734.548 426.993V309.994C734.548 301.276 732.079 295.166 729.575 291.219Z" stroke="#C6FFD7" stroke-width="2"/>
<path d="M1007.06 491.674C1008.14 493.38 1009.23 494.676 1010.11 495.602H939.044C939.931 494.676 941.015 493.38 942.095 491.674C944.596 487.727 947.06 481.617 947.06 472.9V187.328H1000.12C1020.25 187.328 1037.95 171.422 1045 154.876C1048.53 146.587 1049.47 137.959 1046.54 130.957C1043.59 123.889 1036.79 118.727 1025.43 117.212C1008.94 114.749 990.573 122.384 971.14 134.945C952.614 146.92 932.914 163.51 912.683 180.548C911.653 181.415 910.622 182.283 909.589 183.152C888.246 201.117 866.337 219.354 844.502 233.151C822.659 246.954 801.009 256.234 780.184 256.42C754.843 256.419 739.355 249.261 729.755 240.837C720.139 232.4 716.322 222.6 714.494 217.115C711.972 209.549 712.159 200.723 714.934 193.829C717.698 186.962 722.952 182.144 730.58 182.144C738.851 182.144 744.405 188.308 745.132 195.993C745.107 204.272 738.195 210.499 730.58 210.499C725.757 210.499 720.96 207.736 718.914 202.955L716.995 203.348C716.995 211.737 720.233 221.064 727.274 228.297C734.331 235.547 745.151 240.636 760.201 240.636L760.209 240.636C783.306 240.45 804.489 229.324 824.744 212.912C844.123 197.211 862.767 176.577 881.516 155.825C882.361 154.89 883.206 153.955 884.051 153.02C903.685 131.302 923.481 109.687 944.502 93.4935C965.515 77.3058 987.656 66.6135 1011.97 66.6135C1032.84 66.6135 1047.93 73.5627 1057.81 83.6228C1067.7 93.6957 1072.43 106.952 1072.43 119.671C1072.43 148.708 1052.14 170.658 1018.25 186.14C1008.23 190.001 1002.08 199.258 1002.08 210.016V380.323V382.343L1003.69 381.118L1003.08 380.323C1003.69 381.118 1003.69 381.118 1003.69 381.118L1003.69 381.117L1003.7 381.112L1003.72 381.094L1003.82 381.022L1004.18 380.742L1005.58 379.673C1006.8 378.749 1008.54 377.422 1010.66 375.808C1014.89 372.58 1020.63 368.206 1026.64 363.624C1038.68 354.46 1051.82 344.465 1056.26 341.134L1056.27 341.128C1078.59 324.011 1084.42 310.237 1084.43 300.535C1084.43 295.699 1082.98 291.964 1081.52 289.435C1081.02 288.576 1080.53 287.856 1080.09 287.277H1138.43L1024.71 368.392L1025.77 370.081C1039 362.738 1051.42 359.104 1063.06 359.104C1089.24 359.104 1109.6 375.818 1116.15 399.839L1116.16 399.861L1116.17 399.883L1139.86 473.166C1142.13 481.854 1146.29 487.913 1149.9 491.804C1151.41 493.433 1152.82 494.683 1153.95 495.588H1085.15C1085.79 494.632 1086.53 493.266 1087.15 491.448C1088.52 487.448 1089.26 481.321 1086.99 472.633L1086.99 472.62L1086.99 472.607L1064.03 393.379L1064.03 393.38C1061.4 384.36 1057.42 378.244 1052.69 374.382C1047.95 370.513 1042.54 368.969 1037.15 368.969C1028.78 368.969 1020.5 372.739 1013.83 376.431C1013.79 376.447 1013.75 376.461 1013.73 376.471C1013.63 376.509 1013.54 376.555 1013.47 376.598C1013.31 376.685 1013.13 376.8 1012.95 376.928C1012.57 377.188 1012.09 377.548 1011.54 377.969C1010.46 378.812 1009.08 379.931 1007.74 381.043C1006.39 382.157 1005.07 383.27 1004.08 384.104C1003.59 384.522 1003.18 384.869 1002.9 385.113C1002.75 385.235 1002.64 385.331 1002.56 385.396L1002.48 385.471L1002.46 385.49L1002.45 385.495L1002.45 385.496L1002.45 385.496C1002.45 385.496 1002.45 385.496 1003.1 386.256L1002.45 385.496L1002.1 385.796V386.256V472.9C1002.1 481.617 1004.56 487.727 1007.06 491.674Z" stroke="#C6FFD7" stroke-width="2"/>
<path d="M1294.36 474.397H1293.51L1292.66 473.676L1292.65 473.69L1292.36 473.983V474.077C1282.87 486.98 1261.79 499.303 1226.73 499.303C1205.45 499.303 1186.64 492.517 1173.7 480.951C1160.79 469.402 1153.71 453.056 1155.89 433.773L1155.9 433.765L1155.9 433.757C1157.7 415.308 1170.37 401.096 1186.84 390.06C1203.29 379.033 1223.36 371.296 1239.62 365.75C1259.7 359.43 1273.34 351.788 1281.98 344.461C1290.59 337.168 1294.37 330.064 1294.37 324.811C1294.37 307.263 1279.89 288.272 1255.6 288.272C1245.31 288.272 1235.11 292.84 1225.65 299.565C1216.19 306.297 1207.38 315.252 1199.85 324.174C1192.32 333.1 1186.05 342.021 1181.66 348.708C1179.5 351.996 1177.8 354.746 1176.62 356.694V303.934C1176.87 303.801 1177.21 303.622 1177.64 303.403C1178.65 302.883 1180.15 302.137 1182.09 301.241C1185.99 299.449 1191.67 297.056 1198.81 294.663C1213.08 289.874 1233.15 285.088 1256.33 285.088C1279.53 285.088 1302.8 290.248 1320.25 303.31C1337.65 316.337 1349.38 337.314 1349.38 369.249V472.914C1349.38 481.632 1351.84 487.741 1354.34 491.688C1355.42 493.394 1356.51 494.69 1357.4 495.616H1294.36V474.397ZM1294.11 469.134L1294.37 468.848V468.464V338.88V335.162L1292.51 338.378C1287.25 347.444 1279.48 354.098 1270.67 359.877C1266.26 362.766 1261.61 365.428 1256.89 368.063C1255.93 368.599 1254.97 369.135 1254.01 369.671C1250.24 371.764 1246.46 373.866 1242.78 376.066C1233.54 381.595 1224.82 387.805 1218.33 396.275C1211.82 404.766 1207.59 415.472 1207.21 429.918C1206.46 443.016 1208.71 453.238 1212.79 461.174C1216.88 469.114 1222.78 474.706 1229.26 478.583C1242.19 486.318 1257.42 487.249 1265.33 486.495L1265.36 486.492L1265.4 486.486C1279.07 484.213 1287.39 476.594 1294.11 469.134Z" stroke="#C6FFD7" stroke-width="2"/>
</g>
</g>
</svg>
