<svg width="393" height="350" viewBox="0 0 393 350" fill="none" xmlns="http://www.w3.org/2000/svg">
<mask id="mask0_675_1299" style="mask-type:alpha" maskUnits="userSpaceOnUse" x="0" y="0" width="393" height="350">
<rect width="393" height="350" fill="#F1F1F1"/>
</mask>
<g mask="url(#mask0_675_1299)">
<g opacity="0.1">
<path d="M53.1657 350.972H34.1618V346.961V345.22V345.183V344.732V306.891V306.447V306.382V304.669V280.182C34.1618 277.966 33.3677 276.345 32.4992 275.244H51.5052V346.034C51.5052 348.25 52.2982 349.871 53.1657 350.972ZM24.3683 349.89C20.3678 351.183 15.9885 351.899 11.2743 351.899C-7.50906 351.899 -22.3438 340.071 -22.3438 325.815C-22.3438 311.559 -7.50906 299.731 11.2743 299.731C16.1492 299.731 20.6659 300.497 24.7761 301.875C22.8699 301.376 20.8094 301.068 18.6543 301.068C7.49759 301.068 -5.25282 309.78 -5.25282 325.811C-5.25282 338.697 4.01519 350.555 18.6543 350.555C20.6081 350.555 22.5324 350.317 24.3683 349.89Z" stroke="#C6FFD7" stroke-width="2"/>
<path d="M111.118 343.656C111.28 343.566 111.439 343.477 111.595 343.388C111.011 343.995 110.342 344.627 109.58 345.259C105.617 348.547 99.0962 351.892 88.9004 351.892C78.6462 351.892 69.6974 348.975 63.3378 344.317C56.9806 339.661 53.248 333.305 53.248 326.363C53.248 313.297 63.5396 303.373 78.5936 300.542C76.4841 301.265 74.7792 302.403 73.4156 303.827C71.3673 305.966 70.1428 308.69 69.4158 311.458C68.0769 316.558 68.3732 322.045 68.5252 324.861C68.5375 325.088 68.5489 325.298 68.5583 325.489L68.6112 326.557L68.8797 326.526L69.0892 327.501C71.2313 337.464 81.6013 347.399 97.5574 347.399C103.001 347.399 107.752 345.513 111.118 343.656ZM85.2218 299.779C86.0148 299.742 86.8172 299.724 87.6284 299.724C100.839 299.724 108.378 304.567 112.632 309.66C114.773 312.223 116.103 314.876 116.898 317.064C117.444 318.568 117.727 319.825 117.852 320.661L104.112 322.278L103.868 321.302C102.316 315.077 99.7106 309.481 96.0948 305.54C93.1361 302.315 89.4864 300.191 85.2218 299.779Z" stroke="#C6FFD7" stroke-width="2"/>
<path d="M120.563 350.965C121.431 349.864 122.225 348.243 122.225 346.027V280.175C122.225 277.959 121.431 276.338 120.563 275.237H139.569V276.098V307.002V308.002V308.005H140.569V308.856H139.574V309.856V350.111V350.965H120.563ZM166.53 350.965H161.267C171.744 349.786 179.751 341.564 179.751 329.891C179.751 318.39 170.646 308.856 158.135 308.856H157.92C166.542 307.775 173.638 300.801 173.638 292.05C173.638 283.304 167.179 276.296 158.018 275.237H162.966C170.829 275.237 177.633 277.194 182.438 280.294C187.248 283.398 189.966 287.573 189.966 292.047C189.966 298.761 183.448 304.842 173.147 307.591L173.235 309.543C180.11 310.728 186.305 313.272 190.758 316.808C195.203 320.338 197.856 324.804 197.856 329.891C197.856 335.871 194.475 341.11 188.819 344.897C183.157 348.686 175.278 350.965 166.53 350.965Z" stroke="#C6FFD7" stroke-width="2"/>
<path d="M202.139 305.221C202.139 303.005 201.345 301.384 200.477 300.283H219.483V339.537C219.483 343.062 221.623 345.706 224.45 347.419C227.27 349.128 230.892 350 234.228 350C237.679 350 241.165 349.052 243.931 347.708C242.732 348.364 241.364 348.979 239.872 349.523C236.213 350.856 231.937 351.711 227.868 351.711C219.846 351.711 213.381 350.019 208.954 347.035C204.564 344.077 202.139 339.833 202.139 334.53V305.221ZM249.741 342.567L249.463 342.894C249.636 342.471 249.736 342.03 249.736 341.579V305.221C249.736 303.005 248.943 301.384 248.075 300.283H267.089L267.095 301.302L267.123 306.665C267.147 311.131 267.179 317.154 267.21 323.38C267.273 335.833 267.336 349.093 267.336 352.336C267.336 358.824 268.492 364.967 271.826 369.508C275.203 374.107 280.689 376.896 288.952 376.896C300.318 376.896 305.297 370.321 306.195 367.478L306.606 366.177H305.241C303.538 366.177 301.932 366.167 300.744 365.785C300.173 365.601 299.783 365.355 299.533 365.053C299.295 364.766 299.114 364.342 299.114 363.653C299.114 363.036 299.456 362.385 300.217 361.848C300.979 361.312 302.106 360.941 303.459 360.941C304.669 360.941 305.732 361.303 306.468 361.839C307.205 362.377 307.553 363.032 307.553 363.653C307.553 365.71 306.576 369.612 302.91 373.006C299.26 376.385 292.845 379.347 281.824 379.347H281.123C270.912 379.243 263.138 376.868 257.902 372.554C252.578 368.166 249.741 361.657 249.741 353.083V345.291V342.567Z" stroke="#C6FFD7" stroke-width="2"/>
<path d="M294.453 350.968H273.526C274.393 349.868 275.186 348.246 275.186 346.031V275.241H292.768C293.718 275.241 294.654 275.167 295.569 275.03C293.845 276.303 292.787 278.094 292.787 280.175V322.839V324.539L292.792 324.536V346.031C292.792 348.246 293.585 349.868 294.453 350.968ZM312.285 266.548C310.311 268.255 307.746 269.812 304.652 271.215C306.408 269.891 307.818 268.35 308.743 266.768C310.032 264.562 310.483 262.071 309.276 259.968C308.081 257.887 305.47 256.564 301.522 256.179C295.707 255.547 289.282 257.511 282.567 260.674C276.167 263.689 269.367 267.863 262.424 272.125C262.066 272.344 261.707 272.564 261.349 272.784C254.009 277.287 246.509 281.836 239.043 285.274C231.576 288.713 224.218 291.004 217.168 291.05C208.523 291.05 203.317 289.269 200.148 287.242C196.993 285.224 195.762 282.904 195.173 281.616L194.264 282.032L195.173 281.616C194.616 280.399 194.499 279.042 194.793 277.818V278.504C194.793 283.386 199.854 288.595 210.301 288.595L210.307 288.595C218.372 288.548 225.754 285.714 232.779 281.567C239.483 277.608 245.927 272.41 252.36 267.221C252.655 266.983 252.95 266.745 253.245 266.507C266.792 255.585 280.327 245 296.841 245C311.093 245 316.966 251.857 316.966 257.542C316.966 260.888 315.373 263.878 312.285 266.548ZM196.656 277.998L195.546 276.107C196.404 274.856 197.898 273.942 200.119 273.942C202.801 273.942 204.253 275.348 204.464 276.712C204.441 277.39 204.045 278.066 203.266 278.616C202.464 279.182 201.333 279.546 200.119 279.546C198.539 279.546 197.173 278.879 196.656 277.998ZM322.403 302.851C322.404 301.812 322.096 300.95 321.711 300.279H337.292L316.487 311.094C320.912 307.918 322.403 305.157 322.403 302.851ZM311.132 320.685C309.776 319.878 308.286 319.456 306.791 319.308C309.437 318.615 311.973 318.273 314.403 318.273C323.299 318.273 329.949 322.407 332.047 328.012L332.058 328.04L332.07 328.067L340.202 346.4C340.944 348.447 342.209 349.939 343.382 350.965H323.29C323.839 349.757 324.069 348.015 323.239 345.691L323.233 345.674L323.227 345.658L315.337 325.81L315.335 325.81C314.369 323.395 312.893 321.733 311.132 320.685Z" stroke="#C6FFD7" stroke-width="2"/>
<path d="M357.198 325.968C362.789 323.237 369.633 321.311 375.221 319.923C381.817 318.409 386.442 316.586 389.503 314.789C388.31 315.601 386.969 316.333 385.522 317.024C383.7 317.895 381.807 318.662 379.881 319.441C378.584 319.967 377.272 320.498 375.957 321.071C369.635 323.826 363.587 327.429 363.298 335.216C363.032 338.664 363.845 341.41 365.361 343.555C366.868 345.689 369.018 347.156 371.31 348.156C375.87 350.145 381.202 350.377 383.967 350.185L383.992 350.183L384.018 350.18C384.257 350.151 384.491 350.118 384.721 350.083C381.12 351.174 376.47 351.895 370.662 351.895C363.416 351.895 357.066 350.208 352.753 347.396C348.461 344.599 346.274 340.771 346.961 336.354L346.963 336.344L346.964 336.334C347.526 332.154 351.525 328.74 357.198 325.968ZM394.463 309.728C394.532 309.462 394.569 309.196 394.569 308.932C394.569 305.223 391.581 301.628 386.663 299.975C392.537 300.482 398.11 301.809 402.535 304.223C408.344 307.393 412.165 312.417 412.165 320.065V346.034C412.165 348.25 412.958 349.871 413.826 350.972H394.564V346.406H393.678L393.526 346.228C393.756 346.051 393.979 345.874 394.198 345.697L394.569 345.397V344.919V312.457V309.594L394.463 309.728ZM354.096 315.084V304.24C354.432 304.115 354.902 303.947 355.494 303.748C356.819 303.304 358.757 302.709 361.193 302.114C364.767 301.24 369.408 300.366 374.752 299.962C369.615 301.547 364.811 304.914 361.033 308.177C358.416 310.438 356.238 312.696 354.715 314.387C354.495 314.632 354.288 314.865 354.096 315.084Z" stroke="#C6FFD7" stroke-width="2"/>
</g>
</g>
</svg>
