<svg width="32" height="32" viewBox="0 0 32 32" fill="none" xmlns="http://www.w3.org/2000/svg">
<rect width="32" height="32" rx="16" fill="#415953"/>
<path d="M18.7079 24.7752V23.5657C17.5504 24.4623 16.1519 25 14.5602 25C10.9424 25 8 22.0869 8 18.4575C8 14.8282 10.9424 11.9151 14.5602 11.9151C16.1519 11.9151 17.5504 12.4527 18.7079 13.3494V7.43433C18.7079 6.40346 18.0804 6 18.0804 6H22.3734V23.3417C22.3734 24.3726 23 24.7761 23 24.7761H18.7069L18.7079 24.7752ZM18.7079 23.0271V13.8862C18.1291 13.3485 17.1161 12.7211 15.9587 12.7211C13.9327 12.7211 11.6177 14.7375 11.6177 18.4567C11.6177 21.4586 13.3061 24.1922 15.9587 24.1922C17.0195 24.1922 18.0325 23.699 18.7079 23.0271Z" fill="#C6FFD7"/>
</svg>
